<svg width="18" height="12" viewBox="0 0 18 12" fill="none" xmlns="http://www.w3.org/2000/svg">
<g clip-path="url(#clip0_23_23)">
<mask id="mask0_23_23" style="mask-type:luminance" maskUnits="userSpaceOnUse" x="0" y="0" width="18" height="12">
<path d="M18 0H0V12H18V0Z" fill="white"/>
</mask>
<g mask="url(#mask0_23_23)">
<mask id="mask1_23_23" style="mask-type:luminance" maskUnits="userSpaceOnUse" x="0" y="0" width="18" height="12">
<path d="M18 0H0V12H18V0Z" fill="white"/>
</mask>
<g mask="url(#mask1_23_23)">
<path fill-rule="evenodd" clip-rule="evenodd" d="M6.7477 6.00004C6.7477 7.24151 7.7564 8.25006 8.99816 8.25006C10.2399 8.25006 11.2486 7.24151 11.2486 6.00004V5.98134C11.0084 6.22507 10.6787 6.37506 10.3109 6.37506C9.58682 6.37506 8.99816 5.78632 8.99816 5.06256C8.99816 4.54142 9.30544 4.08754 9.74456 3.87749C9.5121 3.79506 9.26081 3.75007 8.99816 3.75007C7.7564 3.75002 6.7477 4.7587 6.7477 6.00004ZM17.4974 4.72118C16.102 2.9476 12.7039 0 9.0018 0C5.29614 0 1.8944 2.94764 0.498824 4.72118C0.183834 5.12626 0.0113116 5.565 0 6.00004C0.0113529 6.43512 0.183834 6.87388 0.498824 7.27886C1.89444 9.05281 5.29242 12 8.99816 12C12.7039 12 16.102 9.05281 17.4974 7.27886C17.816 6.87383 17.9886 6.43512 18 6.00004C17.9886 5.565 17.816 5.12626 17.4974 4.72118ZM8.99816 9.74999C6.92794 9.74999 5.24738 8.06998 5.24738 6.00004C5.24738 3.93007 6.92794 2.25001 8.99816 2.25001C11.0683 2.25001 12.7489 3.93007 12.7489 6.00004C12.7489 8.06994 11.0683 9.74999 8.99816 9.74999Z" fill="#2AB19F"/>
</g>
</g>
</g>
<defs>
<clipPath id="clip0_23_23">
<rect width="18" height="12" fill="white"/>
</clipPath>
</defs>
</svg>
